<svg xmlns="http://www.w3.org/2000/svg" width="16" height="16" viewBox="0 0 16 16" fill="none">
  <path opacity="0.987" fill-rule="evenodd" clip-rule="evenodd" d="M7.20924 1.06099C7.93424 0.979994 8.36324 0.979994 9.14224 1.06099C10.5212 1.26509 11.7995 1.90248 12.7922 2.88099C12.1214 3.51513 11.4593 4.15852 10.8062 4.81099C9.55558 3.75099 8.15958 3.50633 6.61824 4.07699C5.48758 4.59699 4.70024 5.43966 4.25624 6.60499C3.53068 6.06482 2.81457 5.51207 2.10824 4.94699C2.05915 4.92116 2.00309 4.9117 1.94824 4.91999C3.07024 2.75666 4.82358 1.46999 7.20824 1.05999" fill="#F44336"/>
  <path opacity="0.997" fill-rule="evenodd" clip-rule="evenodd" d="M1.94625 4.91994C2.00292 4.91127 2.05659 4.92027 2.10725 4.94694C2.81358 5.51202 3.52969 6.06477 4.25525 6.60494C4.14108 7.059 4.0691 7.52263 4.04025 7.98994C4.06492 8.44194 4.13659 8.8856 4.25525 9.32094L2.00025 11.1159C1.01825 9.06394 1.00025 6.9986 1.94625 4.91994Z" fill="#FFC107"/>
  <path opacity="0.999" fill-rule="evenodd" clip-rule="evenodd" d="M12.6851 13.29C11.9829 12.6708 11.2479 12.0899 10.4831 11.55C11.2497 11.0087 11.7151 10.266 11.8791 9.32199H8.12207V6.71299C10.2887 6.69499 12.4544 6.71332 14.6191 6.76799C15.0297 8.99799 14.5554 11.0087 13.1961 12.8C13.0344 12.9718 12.8632 13.1354 12.6851 13.29Z" fill="#448AFF"/>
  <path opacity="0.993" fill-rule="evenodd" clip-rule="evenodd" d="M4.255 9.32202C5.075 11.36 6.57833 12.3114 8.765 12.176C9.37883 12.105 9.96735 11.8905 10.483 11.55C11.2483 12.0914 11.9823 12.6714 12.685 13.29C11.5716 14.2905 10.1521 14.8841 8.658 14.974C8.31854 15.0012 7.97746 15.0012 7.638 14.974C5.09267 14.674 3.21333 13.388 2 11.116L4.255 9.32202Z" fill="#43A047"/>
</svg>