<svg xmlns="http://www.w3.org/2000/svg" width="16" height="16" viewBox="0 0 16 16" fill="none">
  <path d="M11.1997 2.2001C11.1997 2.04097 11.2629 1.88836 11.3755 1.77583C11.488 1.66331 11.6406 1.6001 11.7997 1.6001H13.7997C13.9589 1.6001 14.1115 1.66331 14.224 1.77583C14.3365 1.88836 14.3997 2.04097 14.3997 2.2001V4.2001C14.3997 4.35923 14.3365 4.51184 14.224 4.62436C14.1115 4.73688 13.9589 4.8001 13.7997 4.8001C13.6406 4.8001 13.488 4.73688 13.3755 4.62436C13.2629 4.51184 13.1997 4.35923 13.1997 4.2001V3.6481L9.62373 7.2241C9.51123 7.33646 9.35873 7.39957 9.19973 7.39957C9.04073 7.39957 8.88823 7.33646 8.77573 7.2241L6.79973 5.2481L3.42373 8.6241C3.3688 8.68305 3.30256 8.73033 3.22896 8.76312C3.15536 8.79592 3.07591 8.81355 2.99535 8.81497C2.91479 8.81639 2.83476 8.80157 2.76005 8.7714C2.68534 8.74122 2.61748 8.6963 2.5605 8.63933C2.50353 8.58235 2.45861 8.51449 2.42843 8.43978C2.39826 8.36507 2.38344 8.28504 2.38486 8.20448C2.38628 8.12392 2.40391 8.04447 2.43671 7.97087C2.4695 7.89727 2.51678 7.83103 2.57573 7.7761L6.37573 3.9761C6.48823 3.86374 6.64073 3.80063 6.79973 3.80063C6.95873 3.80063 7.11123 3.86374 7.22373 3.9761L9.19973 5.9521L12.3517 2.8001H11.7997C11.6406 2.8001 11.488 2.73688 11.3755 2.62436C11.2629 2.51184 11.1997 2.35923 11.1997 2.2001ZM2.99973 11.2001C3.15886 11.2001 3.31147 11.2633 3.424 11.3758C3.53652 11.4884 3.59973 11.641 3.59973 11.8001V13.8001C3.59973 13.9592 3.53652 14.1118 3.424 14.2244C3.31147 14.3369 3.15886 14.4001 2.99973 14.4001C2.8406 14.4001 2.68799 14.3369 2.57547 14.2244C2.46295 14.1118 2.39973 13.9592 2.39973 13.8001V11.8001C2.39973 11.641 2.46295 11.4884 2.57547 11.3758C2.68799 11.2633 2.8406 11.2001 2.99973 11.2001ZM6.79973 9.4001C6.79973 9.24097 6.73652 9.08836 6.624 8.97583C6.51147 8.86331 6.35886 8.8001 6.19973 8.8001C6.0406 8.8001 5.88799 8.86331 5.77547 8.97583C5.66295 9.08836 5.59973 9.24097 5.59973 9.4001V13.8001C5.59973 13.9592 5.66295 14.1118 5.77547 14.2244C5.88799 14.3369 6.0406 14.4001 6.19973 14.4001C6.35886 14.4001 6.51147 14.3369 6.624 14.2244C6.73652 14.1118 6.79973 13.9592 6.79973 13.8001V9.4001ZM9.39973 10.4001C9.55886 10.4001 9.71147 10.4633 9.824 10.5758C9.93652 10.6884 9.99973 10.841 9.99973 11.0001V13.8001C9.99973 13.9592 9.93652 14.1118 9.824 14.2244C9.71147 14.3369 9.55886 14.4001 9.39973 14.4001C9.2406 14.4001 9.08799 14.3369 8.97547 14.2244C8.86295 14.1118 8.79973 13.9592 8.79973 13.8001V11.0001C8.79973 10.841 8.86295 10.6884 8.97547 10.5758C9.08799 10.4633 9.2406 10.4001 9.39973 10.4001ZM13.1997 7.8001C13.1997 7.64097 13.1365 7.48836 13.024 7.37583C12.9115 7.26331 12.7589 7.2001 12.5997 7.2001C12.4406 7.2001 12.288 7.26331 12.1755 7.37583C12.0629 7.48836 11.9997 7.64097 11.9997 7.8001V13.8001C11.9997 13.9592 12.0629 14.1118 12.1755 14.2244C12.288 14.3369 12.4406 14.4001 12.5997 14.4001C12.7589 14.4001 12.9115 14.3369 13.024 14.2244C13.1365 14.1118 13.1997 13.9592 13.1997 13.8001V7.8001Z" fill="#383CFC"/>
</svg>