<svg xmlns="http://www.w3.org/2000/svg" width="16" height="16" viewBox="0 0 16 16" fill="none">
  <path fill-rule="evenodd" clip-rule="evenodd" d="M8.50046 0.166748C8.32365 0.166748 8.15408 0.236986 8.02905 0.36201C7.90403 0.487034 7.83379 0.656604 7.83379 0.833415V1.83341C7.83379 2.01023 7.90403 2.1798 8.02905 2.30482C8.15408 2.42984 8.32365 2.50008 8.50046 2.50008C8.67727 2.50008 8.84684 2.42984 8.97186 2.30482C9.09689 2.1798 9.16712 2.01023 9.16712 1.83341V0.833415C9.16712 0.656604 9.09689 0.487034 8.97186 0.36201C8.84684 0.236986 8.67727 0.166748 8.50046 0.166748ZM2.83379 7.16675C2.65698 7.16675 2.48741 7.09651 2.36239 6.97149C2.23736 6.84646 2.16712 6.67689 2.16712 6.50008C2.16712 6.32327 2.23736 6.1537 2.36239 6.02868C2.48741 5.90365 2.65698 5.83342 2.83379 5.83342H3.83379C4.0106 5.83342 4.18017 5.90365 4.3052 6.02868C4.43022 6.1537 4.50046 6.32327 4.50046 6.50008C4.50046 6.67689 4.43022 6.84646 4.3052 6.97149C4.18017 7.09651 4.0106 7.16675 3.83379 7.16675H2.83379ZM14.1671 7.16675C14.3439 7.16675 14.5135 7.09651 14.6385 6.97149C14.7636 6.84646 14.8338 6.67689 14.8338 6.50008C14.8338 6.32327 14.7636 6.1537 14.6385 6.02868C14.5135 5.90365 14.3439 5.83342 14.1671 5.83342H13.1671C12.9903 5.83342 12.8207 5.90365 12.6957 6.02868C12.5707 6.1537 12.5005 6.32327 12.5005 6.50008C12.5005 6.67689 12.5707 6.84646 12.6957 6.97149C12.8207 7.09651 12.9903 7.16675 13.1671 7.16675H14.1671ZM4.02179 2.96508C3.89679 2.84003 3.82658 2.67045 3.82661 2.49363C3.82664 2.31681 3.89691 2.14725 4.02196 2.02225C4.14701 1.89724 4.31659 1.82703 4.49341 1.82706C4.67022 1.8271 4.83979 1.89737 4.96479 2.02241L5.67179 2.72908C5.73373 2.79098 5.78287 2.86447 5.81641 2.94536C5.84995 3.02624 5.86723 3.11295 5.86726 3.20051C5.86729 3.28808 5.85007 3.37479 5.81659 3.4557C5.78311 3.53662 5.73402 3.61014 5.67212 3.67208C5.61023 3.73402 5.53674 3.78316 5.45585 3.8167C5.37496 3.85024 5.28826 3.86752 5.20069 3.86755C5.11313 3.86758 5.02641 3.85036 4.9455 3.81688C4.86459 3.7834 4.79106 3.73431 4.72912 3.67241L4.02179 2.96508ZM12.9785 2.02241C13.1034 2.14743 13.1736 2.31697 13.1736 2.49375C13.1736 2.67052 13.1034 2.84006 12.9785 2.96508L12.2711 3.67208C12.2096 3.73575 12.1361 3.78654 12.0547 3.82148C11.9734 3.85642 11.8859 3.87481 11.7974 3.87558C11.7089 3.87635 11.6211 3.85948 11.5392 3.82596C11.4572 3.79244 11.3828 3.74294 11.3202 3.68034C11.2576 3.61775 11.2081 3.54332 11.1746 3.46138C11.1411 3.37945 11.1242 3.29167 11.125 3.20315C11.1257 3.11463 11.1441 3.02715 11.1791 2.94581C11.214 2.86448 11.2648 2.79091 11.3285 2.72941L12.0355 2.02241C12.0974 1.96048 12.1709 1.91135 12.2518 1.87783C12.3327 1.84431 12.4194 1.82706 12.507 1.82706C12.5945 1.82706 12.6812 1.84431 12.7621 1.87783C12.843 1.91135 12.9165 1.96048 12.9785 2.02241ZM8.35012 3.34675C8.44799 3.25729 8.57739 3.21038 8.70985 3.21631C8.84231 3.22225 8.96698 3.28056 9.05646 3.37841L9.05746 3.37941L9.05846 3.38075L9.06179 3.38408L9.07179 3.39541L9.10512 3.43441C9.13401 3.46775 9.1749 3.51741 9.22779 3.58341C9.33412 3.71675 9.48946 3.91941 9.69379 4.20808C10.1021 4.78475 10.7078 5.70508 11.5091 7.09342C12.3108 8.48141 12.8048 9.46575 13.1001 10.1084C13.2096 10.344 13.3123 10.5826 13.4081 10.8241C13.4379 10.8998 13.4661 10.9762 13.4928 11.0531L13.4975 11.0674L13.4991 11.0721L13.4998 11.0744V11.0751C13.5382 11.2003 13.526 11.3355 13.4658 11.4518C13.4056 11.5681 13.3021 11.6561 13.1777 11.6969C13.0532 11.7378 12.9178 11.7281 12.8004 11.6701C12.6829 11.6121 12.593 11.5104 12.5498 11.3867C12.1348 11.5261 11.7131 11.6634 11.2891 11.7977C11.1565 11.4746 11.0168 11.1544 10.8701 10.8374C10.4595 9.95226 10.0093 9.08594 9.52112 8.24108C9.03377 7.39589 8.5088 6.57295 7.94779 5.77475C7.74671 5.4896 7.53944 5.20886 7.32612 4.93275C7.65446 4.63275 7.98412 4.33608 8.31246 4.04641C8.2258 3.94812 8.18119 3.81973 8.18824 3.68888C8.19528 3.55803 8.25341 3.43517 8.35012 3.34675ZM10.2868 11.9901C10.3019 12.0254 10.3167 12.0607 10.3311 12.0961C9.65112 12.3044 8.97446 12.5041 8.32046 12.6914L8.41279 13.0354C8.56361 13.5982 8.48467 14.1979 8.19333 14.7026C7.90199 15.2072 7.42212 15.5754 6.85929 15.7262C6.29646 15.8771 5.69676 15.7981 5.19213 15.5068C4.6875 15.2155 4.31928 14.7356 4.16846 14.1727L4.07979 13.8421C3.75312 13.9254 3.47312 13.9964 3.24979 14.0521C2.70012 14.1894 2.10146 14.0041 1.74879 13.5247C1.62212 13.3521 1.48046 13.1481 1.36646 12.9501C1.25307 12.7497 1.1507 12.5433 1.05979 12.3317C0.821125 11.7867 0.959791 11.1754 1.35379 10.7681C2.22379 9.86808 4.31779 7.72941 6.58846 5.61341L6.65746 5.70341C6.76912 5.85075 6.93146 6.06942 7.13046 6.35142C7.6741 7.12492 8.18284 7.92239 8.65512 8.74142C9.12823 9.55992 9.56445 10.3992 9.96246 11.2567C10.1075 11.5701 10.2158 11.8201 10.2871 11.9901H10.2868ZM5.37012 13.5054L5.45646 13.8274C5.48579 13.937 5.5364 14.0397 5.60542 14.1296C5.67444 14.2196 5.7605 14.2951 5.8587 14.3518C5.9569 14.4086 6.06531 14.4454 6.17774 14.4602C6.29016 14.475 6.40441 14.4676 6.51396 14.4382C6.6235 14.4089 6.7262 14.3583 6.81618 14.2893C6.90616 14.2203 6.98167 14.1342 7.03839 14.036C7.09511 13.9378 7.13193 13.8294 7.14676 13.717C7.16158 13.6045 7.15412 13.4903 7.12479 13.3807L7.03712 13.0534C6.44146 13.2184 5.87979 13.3701 5.37012 13.5054Z" fill="#383CFC"/>
</svg>