<svg xmlns="http://www.w3.org/2000/svg" width="16" height="16" viewBox="0 0 16 16" fill="none">
  <path fill-rule="evenodd" clip-rule="evenodd" d="M14.6669 4.66V7.33333C14.6669 7.46517 14.6278 7.59403 14.5545 7.70364C14.4813 7.81325 14.3772 7.89867 14.2554 7.94912C14.1336 7.99957 13.9996 8.01277 13.8702 7.98706C13.7409 7.96134 13.6222 7.89787 13.5289 7.80467L12.6669 6.94267L9.13827 10.4713C9.01325 10.5963 8.84371 10.6665 8.66694 10.6665C8.49016 10.6665 8.32062 10.5963 8.19561 10.4713L6.00027 8.276L2.4716 11.8047C2.34587 11.9261 2.17747 11.9933 2.00267 11.9918C1.82787 11.9903 1.66066 11.9202 1.53706 11.7965C1.41345 11.6729 1.34334 11.5057 1.34182 11.3309C1.3403 11.1561 1.4075 10.9877 1.52894 10.862L5.52894 6.862C5.65396 6.73702 5.8235 6.66681 6.00027 6.66681C6.17705 6.66681 6.34659 6.73702 6.4716 6.862L8.66694 9.05733L11.7243 6L10.8623 5.138C10.7691 5.04477 10.7056 4.92599 10.6799 4.79669C10.6542 4.66739 10.6674 4.53336 10.7178 4.41156C10.7683 4.28976 10.8537 4.18565 10.9633 4.1124C11.0729 4.03914 11.2018 4.00003 11.3336 4H14.0003L14.0323 4.00067C14.2026 4.00819 14.3634 4.08092 14.4816 4.20378C14.5997 4.32663 14.6661 4.49022 14.6669 4.66067" fill="#383CFC"/>
</svg>