<svg xmlns="http://www.w3.org/2000/svg" width="15" height="16" viewBox="0 0 15 16" fill="none">
  <g clip-path="url(#clip0_10_239)">
    <path d="M10.4677 5.76119C11.4982 6.49746 12.7607 6.93068 14.1241 6.93068V4.30833C13.8661 4.30843 13.6087 4.28151 13.3562 4.228V6.29217C11.9929 6.29217 10.7306 5.85901 9.69985 5.12279V10.4743C9.69985 13.1514 7.52849 15.3215 4.8502 15.3215C3.85086 15.3215 2.92198 15.0195 2.15039 14.5016C3.03105 15.4016 4.25919 15.9599 5.61787 15.9599C8.29638 15.9599 10.4678 13.7899 10.4678 11.1126V5.76119H10.4677ZM11.415 3.11556C10.8883 2.5405 10.5425 1.79732 10.4677 0.975697V0.638428H9.74002C9.92319 1.68268 10.548 2.57481 11.415 3.11556ZM3.8444 12.4473C3.55013 12.0618 3.39108 11.59 3.39183 11.105C3.39183 9.88058 4.38498 8.88781 5.61031 8.88781C5.83862 8.88768 6.0656 8.92272 6.28325 8.9917V6.3107C6.0289 6.27589 5.77224 6.26105 5.51569 6.26651V8.35324C5.29793 8.28425 5.07084 8.24923 4.84242 8.24941C3.61715 8.24941 2.62405 9.24207 2.62405 10.4666C2.62405 11.3325 3.12043 12.0821 3.8444 12.4473Z" fill="#FF004F"/>
    <path d="M9.69922 5.12273C10.73 5.85895 11.9922 6.29211 13.3556 6.29211V4.22794C12.5946 4.0659 11.9208 3.66844 11.4143 3.11556C10.5473 2.57476 9.92256 1.68262 9.73939 0.638428H7.82805V11.1125C7.82369 12.3336 6.83224 13.3223 5.60956 13.3223C4.88912 13.3223 4.24901 12.9791 3.84366 12.4473C3.1198 12.0821 2.62336 11.3324 2.62336 10.4667C2.62336 9.24223 3.61646 8.24946 4.84173 8.24946C5.07649 8.24946 5.30275 8.28599 5.515 8.3533V6.26657C2.88372 6.32091 0.767578 8.46976 0.767578 11.1126C0.767578 12.4319 1.29453 13.6278 2.14981 14.5017C2.9214 15.0195 3.85023 15.3216 4.84962 15.3216C7.52796 15.3216 9.69928 13.1514 9.69928 10.4743L9.69922 5.12273Z" fill="black"/>
    <path d="M13.3559 4.22786V3.66985C12.6696 3.67084 11.9969 3.47875 11.4146 3.11553C11.93 3.67951 12.6087 4.06843 13.3559 4.22797M9.73959 0.638345C9.72214 0.53857 9.70874 0.438129 9.69942 0.337269V0H7.0603V10.4742C7.05611 11.6952 6.06466 12.6839 4.84193 12.6839C4.4953 12.6844 4.1534 12.6034 3.84386 12.4473C4.24921 12.979 4.88932 13.3222 5.60977 13.3222C6.83239 13.3222 7.82395 12.3336 7.82825 11.1126V0.6384L9.73959 0.638345ZM5.51537 6.26648V5.67233C5.29483 5.64222 5.07251 5.62714 4.84993 5.6272C2.17131 5.6272 0 7.79735 0 10.4742C0 12.1525 0.853352 13.6316 2.15012 14.5016C1.29484 13.6278 0.76789 12.4317 0.76789 11.1125C0.76789 8.46974 2.88397 6.32083 5.51537 6.26648Z" fill="#00F2EA"/>
  </g>
  <defs>
    <clipPath id="clip0_10_239">
      <rect width="14.1241" height="16" fill="white"/>
    </clipPath>
  </defs>
</svg>